<svg width="664" height="153" viewBox="0 0 664 153" fill="none" xmlns="http://www.w3.org/2000/svg">
<g clip-path="url(#clip0_486_2557)">
<path d="M76.5 0C118.75 0 153 34.2502 153 76.5C153 118.75 118.75 153 76.5 153C34.2502 153 0 118.75 0 76.5C0 34.2502 34.2502 0 76.5 0ZM76.5 9.17969C39.3202 9.17969 9.17969 39.3202 9.17969 76.5C9.17969 113.68 39.3202 143.82 76.5 143.82C113.68 143.82 143.82 113.68 143.82 76.5C143.82 39.3202 113.68 9.17969 76.5 9.17969ZM97.3076 71.9102C99.8426 71.9102 101.898 73.965 101.898 76.5C101.898 90.5269 90.5269 101.898 76.5 101.898C62.4731 101.898 51.1016 90.5269 51.1016 76.5C51.1016 73.965 53.1574 71.9102 55.6924 71.9102C58.2272 71.9104 60.2822 73.9651 60.2822 76.5C60.2822 85.457 67.543 92.7178 76.5 92.7178C85.457 92.7178 92.7178 85.457 92.7178 76.5C92.7178 73.9651 94.7728 71.9104 97.3076 71.9102ZM57.9873 52.0195C61.7896 52.0197 64.8721 55.1029 64.8721 58.9053C64.8719 62.7075 61.7896 65.7899 57.9873 65.79C54.1849 65.79 51.1017 62.7076 51.1016 58.9053C51.1016 55.1028 54.1848 52.0195 57.9873 52.0195ZM95.0127 52.0195C98.8152 52.0195 101.898 55.1028 101.898 58.9053C101.898 62.7076 98.8151 65.79 95.0127 65.79C91.2104 65.7899 88.1281 62.7075 88.1279 58.9053C88.1279 55.1029 91.2104 52.0197 95.0127 52.0195Z" fill="white"/>
<path d="M216.328 101.892C211.784 101.892 207.752 100.868 204.232 98.8199C200.712 96.7079 197.96 93.8279 195.976 90.1799C193.992 86.4679 193 82.1799 193 77.3159C193 72.3879 193.96 68.0679 195.88 64.3559C197.864 60.6439 200.552 57.7319 203.944 55.6199C207.4 53.5079 211.4 52.4519 215.944 52.4519C220.424 52.4519 224.296 53.4119 227.56 55.3319C230.888 57.2519 233.448 59.9399 235.24 63.3959C237.096 66.8519 238.024 70.9159 238.024 75.5879V78.9479L197.8 79.0439L197.992 72.9959H229C229 69.0919 227.816 65.9559 225.448 63.5879C223.08 61.2199 219.912 60.0359 215.944 60.0359C212.936 60.0359 210.344 60.7079 208.168 62.0519C206.056 63.3319 204.424 65.2519 203.272 67.8119C202.184 70.3079 201.64 73.3159 201.64 76.8359C201.64 82.4679 202.92 86.8199 205.48 89.8919C208.04 92.8999 211.72 94.4039 216.52 94.4039C220.04 94.4039 222.92 93.6999 225.16 92.2919C227.4 90.8839 228.904 88.8359 229.672 86.1479H238.12C236.968 91.1399 234.504 95.0119 230.728 97.7639C226.952 100.516 222.152 101.892 216.328 101.892Z" fill="white"/>
<path d="M254.247 100.74H245.223V53.7959H253.287L254.535 62.4359L253.383 61.6679C254.343 59.0439 256.103 56.8679 258.663 55.1399C261.287 53.3479 264.455 52.4519 268.167 52.4519C272.327 52.4519 275.783 53.5719 278.535 55.8119C281.287 58.0519 283.079 61.0279 283.911 64.7399H282.279C282.919 61.0279 284.679 58.0519 287.559 55.8119C290.439 53.5719 293.991 52.4519 298.215 52.4519C303.591 52.4519 307.815 54.0199 310.887 57.1559C313.959 60.2919 315.495 64.5799 315.495 70.0199V100.74H306.663V72.2279C306.663 68.5159 305.703 65.6679 303.783 63.6839C301.927 61.6359 299.399 60.6119 296.199 60.6119C293.959 60.6119 291.975 61.1239 290.247 62.1479C288.583 63.1079 287.271 64.5159 286.311 66.3719C285.351 68.2279 284.871 70.4039 284.871 72.8999V100.74H275.943V72.1319C275.943 68.4199 275.015 65.6039 273.159 63.6839C271.303 61.6999 268.775 60.7079 265.575 60.7079C263.335 60.7079 261.351 61.2199 259.623 62.2439C257.959 63.2039 256.647 64.6119 255.687 66.4679C254.727 68.2599 254.247 70.4039 254.247 72.8999V100.74Z" fill="white"/>
<path d="M322.053 77.2199C322.053 72.4199 323.109 68.1639 325.221 64.4519C327.333 60.7399 330.213 57.8279 333.861 55.7159C337.573 53.6039 341.797 52.5479 346.533 52.5479C351.269 52.5479 355.461 53.6039 359.109 55.7159C362.757 57.8279 365.637 60.7399 367.749 64.4519C369.861 68.1639 370.917 72.4199 370.917 77.2199C370.917 82.0199 369.861 86.2759 367.749 89.9879C365.637 93.6999 362.757 96.6119 359.109 98.7239C355.461 100.836 351.269 101.892 346.533 101.892C341.797 101.892 337.573 100.836 333.861 98.7239C330.213 96.6119 327.333 93.6999 325.221 89.9879C323.109 86.2759 322.053 82.0199 322.053 77.2199ZM331.173 77.2199C331.173 80.4839 331.812 83.3639 333.092 85.8599C334.436 88.3559 336.26 90.3079 338.564 91.7159C340.868 93.1239 343.525 93.8279 346.533 93.8279C349.541 93.8279 352.197 93.1239 354.501 91.7159C356.805 90.3079 358.597 88.3559 359.877 85.8599C361.221 83.3639 361.893 80.4839 361.893 77.2199C361.893 73.8919 361.221 71.0119 359.877 68.5799C358.597 66.0839 356.805 64.1319 354.501 62.7239C352.197 61.3159 349.541 60.6119 346.533 60.6119C343.525 60.6119 340.868 61.3159 338.564 62.7239C336.26 64.1319 334.436 66.0839 333.092 68.5799C331.812 71.0119 331.173 73.8919 331.173 77.2199Z" fill="white"/>
<path d="M366.122 122.052L367.658 113.892C368.554 114.148 369.322 114.308 369.962 114.372C370.602 114.5 371.274 114.564 371.978 114.564C374.154 114.564 375.69 113.924 376.586 112.644C377.546 111.364 378.026 109.412 378.026 106.788V53.7959H387.05V107.652C387.05 112.324 385.802 116.036 383.306 118.788C380.81 121.54 377.29 122.916 372.746 122.916C371.594 122.916 370.538 122.852 369.578 122.724C368.618 122.596 367.466 122.372 366.122 122.052ZM382.538 42.6599C380.874 42.6599 379.466 42.0839 378.314 40.9319C377.162 39.7159 376.586 38.3079 376.586 36.7079C376.586 35.0439 377.162 33.6359 378.314 32.4839C379.466 31.3319 380.874 30.7559 382.538 30.7559C384.138 30.7559 385.514 31.3319 386.666 32.4839C387.882 33.6359 388.49 35.0439 388.49 36.7079C388.49 38.3079 387.882 39.7159 386.666 40.9319C385.514 42.0839 384.138 42.6599 382.538 42.6599Z" fill="white"/>
<path d="M397.271 100.74V53.7959H406.295V100.74H397.271ZM401.687 42.6599C400.087 42.6599 398.679 42.0839 397.463 40.9319C396.311 39.7159 395.735 38.3079 395.735 36.7079C395.735 35.0439 396.311 33.6359 397.463 32.4839C398.679 31.3319 400.087 30.7559 401.687 30.7559C403.351 30.7559 404.759 31.3319 405.911 32.4839C407.063 33.6359 407.639 35.0439 407.639 36.7079C407.639 38.3079 407.063 39.7159 405.911 40.9319C404.759 42.0839 403.351 42.6599 401.687 42.6599Z" fill="white"/>
<path d="M426.791 101.892C424.935 101.892 423.303 101.252 421.895 99.972C420.551 98.628 419.879 97.028 419.879 95.172C419.879 93.252 420.551 91.652 421.895 90.372C423.303 89.028 424.935 88.356 426.791 88.356C428.647 88.356 430.247 89.028 431.591 90.372C432.935 91.652 433.607 93.252 433.607 95.172C433.607 97.028 432.935 98.628 431.591 99.972C430.247 101.252 428.647 101.892 426.791 101.892Z" fill="#696969"/>
<path d="M435.824 53.796H463.28V61.38H435.824V53.796ZM454.064 100.74H445.04V39.108H454.064V100.74Z" fill="#696969"/>
<path d="M464.958 77.22C464.958 72.42 466.014 68.164 468.126 64.452C470.238 60.74 473.118 57.828 476.766 55.716C480.478 53.604 484.702 52.548 489.438 52.548C494.174 52.548 498.366 53.604 502.014 55.716C505.662 57.828 508.542 60.74 510.654 64.452C512.766 68.164 513.822 72.42 513.822 77.22C513.822 82.02 512.766 86.276 510.654 89.988C508.542 93.7 505.662 96.612 502.014 98.724C498.366 100.836 494.174 101.892 489.438 101.892C484.702 101.892 480.478 100.836 476.766 98.724C473.118 96.612 470.238 93.7 468.126 89.988C466.014 86.276 464.958 82.02 464.958 77.22ZM474.078 77.22C474.078 80.484 474.718 83.364 475.998 85.86C477.342 88.356 479.166 90.308 481.47 91.716C483.774 93.124 486.43 93.828 489.438 93.828C492.446 93.828 495.102 93.124 497.406 91.716C499.71 90.308 501.502 88.356 502.782 85.86C504.126 83.364 504.798 80.484 504.798 77.22C504.798 73.892 504.126 71.012 502.782 68.58C501.502 66.084 499.71 64.132 497.406 62.724C495.102 61.316 492.446 60.612 489.438 60.612C486.43 60.612 483.774 61.316 481.47 62.724C479.166 64.132 477.342 66.084 475.998 68.58C474.718 71.012 474.078 73.892 474.078 77.22Z" fill="#696969"/>
<path d="M539.747 101.892C535.203 101.892 531.299 100.868 528.035 98.82C524.771 96.708 522.243 93.796 520.451 90.084C518.723 86.372 517.859 82.148 517.859 77.412C517.859 72.612 518.755 68.356 520.547 64.644C522.339 60.868 524.899 57.892 528.227 55.716C531.555 53.54 535.523 52.452 540.131 52.452C543.779 52.452 547.011 53.22 549.827 54.756C552.707 56.228 554.947 58.436 556.547 61.38V30.084H565.475V100.74H557.411L556.643 92.196C555.107 95.332 552.835 97.732 549.827 99.396C546.883 101.06 543.523 101.892 539.747 101.892ZM541.571 93.732C544.643 93.732 547.267 93.028 549.443 91.62C551.683 90.212 553.411 88.26 554.627 85.764C555.843 83.268 556.451 80.388 556.451 77.124C556.451 73.86 555.843 71.012 554.627 68.58C553.411 66.084 551.683 64.132 549.443 62.724C547.267 61.316 544.643 60.612 541.571 60.612C538.499 60.612 535.875 61.348 533.699 62.82C531.523 64.228 529.859 66.18 528.707 68.676C527.555 71.108 526.979 73.924 526.979 77.124C526.979 80.388 527.555 83.268 528.707 85.764C529.859 88.26 531.523 90.212 533.699 91.62C535.875 93.028 538.499 93.732 541.571 93.732Z" fill="#696969"/>
<path d="M589.341 101.892C584.349 101.892 580.413 100.58 577.533 97.956C574.717 95.332 573.309 91.908 573.309 87.684C573.309 83.396 574.845 79.972 577.917 77.412C580.989 74.788 585.277 73.252 590.781 72.804L605.565 71.652V70.308C605.565 67.684 605.085 65.604 604.125 64.068C603.165 62.468 601.853 61.348 600.189 60.708C598.525 60.004 596.637 59.652 594.525 59.652C590.749 59.652 587.805 60.452 585.693 62.052C583.645 63.588 582.621 65.796 582.621 68.676H574.749C574.749 65.412 575.581 62.564 577.245 60.132C578.909 57.7 581.245 55.812 584.253 54.468C587.325 53.124 590.877 52.452 594.909 52.452C598.813 52.452 602.205 53.156 605.085 54.564C608.029 55.908 610.301 57.988 611.901 60.804C613.565 63.556 614.397 67.044 614.397 71.268V100.74H606.717L605.757 93.156C604.541 95.844 602.429 97.988 599.421 99.588C596.477 101.124 593.117 101.892 589.341 101.892ZM591.933 94.884C596.221 94.884 599.581 93.604 602.013 91.044C604.445 88.42 605.661 84.9 605.661 80.484V77.988L593.661 78.948C589.693 79.332 586.813 80.26 585.021 81.732C583.293 83.204 582.429 85.092 582.429 87.396C582.429 89.892 583.261 91.78 584.925 93.06C586.653 94.276 588.989 94.884 591.933 94.884Z" fill="#696969"/>
<path d="M626.634 53.796L643.146 99.492L637.578 107.172L617.13 53.796H626.634ZM618.378 121.764V114.372H624.426C625.898 114.372 627.242 114.212 628.458 113.892C629.674 113.636 630.794 113.028 631.818 112.068C632.842 111.172 633.706 109.732 634.41 107.748L654.186 53.796H663.498L641.322 111.3C639.722 115.332 637.706 118.244 635.274 120.036C632.842 121.828 629.834 122.724 626.25 122.724C624.778 122.724 623.402 122.628 622.122 122.436C620.842 122.308 619.594 122.084 618.378 121.764Z" fill="#696969"/>
</g>
<defs>
<clipPath id="clip0_486_2557">
<rect width="663.498" height="153" fill="white"/>
</clipPath>
</defs>
</svg>
