<svg width="500" height="500" viewBox="0 0 500 500" fill="none" xmlns="http://www.w3.org/2000/svg">
<g clip-path="url(#clip0_425_45)">
<circle cx="250" cy="250" r="250" fill="black" fill-opacity="0.5"/>
<path d="M250 0C388.071 0 500 111.929 500 250C500 388.071 388.071 500 250 500C111.929 500 0 388.071 0 250C0 111.929 111.929 0 250 0ZM250 30C128.497 30 30 128.497 30 250C30 371.503 128.497 470 250 470C371.503 470 470 371.503 470 250C470 128.497 371.503 30 250 30ZM318 235C326.284 235 333 241.716 333 250C333 295.84 295.84 333 250 333C204.16 333 167 295.84 167 250C167 241.716 173.716 235 182 235C190.284 235 197 241.716 197 250C197 279.271 220.729 303 250 303C279.271 303 303 279.271 303 250C303 241.716 309.716 235 318 235ZM189.5 170C201.926 170 212 180.074 212 192.5C212 204.926 201.926 215 189.5 215C177.074 215 167 204.926 167 192.5C167 180.074 177.074 170 189.5 170ZM310.5 170C322.926 170 333 180.074 333 192.5C333 204.926 322.926 215 310.5 215C298.074 215 288 204.926 288 192.5C288 180.074 298.074 170 310.5 170Z" fill="white"/>
</g>
<defs>
<clipPath id="clip0_425_45">
<rect width="500" height="500" fill="white"/>
</clipPath>
</defs>
</svg>
