<svg width="3745" height="3745" viewBox="0 0 3745 3745" fill="none" xmlns="http://www.w3.org/2000/svg">
<path d="M1419.36 1273.3C1512.43 1273.3 1587.88 1348.75 1587.88 1441.83C1587.88 1534.9 1512.43 1610.35 1419.36 1610.35C1326.28 1610.35 1250.83 1534.9 1250.83 1441.83C1250.83 1348.75 1326.28 1273.3 1419.36 1273.3Z" fill="white"/>
<path d="M2325.65 1273.3C2418.72 1273.3 2494.17 1348.75 2494.17 1441.83C2494.17 1534.9 2418.72 1610.35 2325.65 1610.35C2232.57 1610.35 2157.12 1534.9 2157.12 1441.83C2157.12 1348.75 2232.57 1273.3 2325.65 1273.3Z" fill="white"/>
<path fill-rule="evenodd" clip-rule="evenodd" d="M1872.5 0C2906.65 0 3745 838.347 3745 1872.5C3745 2906.65 2906.65 3745 1872.5 3745C838.347 3745 0 2906.65 0 1872.5C0 838.347 838.347 0 1872.5 0ZM1872.5 224.7C962.445 224.7 224.7 962.445 224.7 1872.5C224.7 2782.55 962.445 3520.3 1872.5 3520.3C2782.55 3520.3 3520.3 2782.55 3520.3 1872.5C3520.3 962.445 2782.55 224.7 1872.5 224.7Z" fill="white"/>
<path d="M1363.18 2494.17C1301.13 2494.17 1250.83 2443.87 1250.83 2381.82C1250.83 2038.48 1529.16 1760.15 1872.5 1760.15C2215.84 1760.15 2494.17 2038.48 2494.17 2381.82C2494.17 2443.87 2443.87 2494.17 2381.82 2494.17C2319.77 2494.17 2269.47 2443.87 2269.47 2381.82C2269.47 2162.58 2091.74 1984.85 1872.5 1984.85C1653.26 1984.85 1475.53 2162.58 1475.53 2381.82C1475.53 2443.87 1425.23 2494.17 1363.18 2494.17Z" fill="white"/>
</svg>
