<svg width="1000" height="1000" viewBox="0 0 1000 1000" fill="none" xmlns="http://www.w3.org/2000/svg">
<g clip-path="url(#clip0_347_781)">
<path d="M613.683 433.333C600.163 433.333 588.275 428.605 578.019 419.149C568.228 409.22 563.333 397.4 563.333 383.688C563.333 369.504 568.228 357.683 578.019 348.227C588.275 338.298 600.163 333.333 613.683 333.333C627.203 333.333 638.858 338.298 648.648 348.227C658.438 357.683 663.333 369.504 663.333 383.688C663.333 397.4 658.438 409.22 648.648 419.149C638.858 428.605 627.203 433.333 613.683 433.333Z" fill="white"/>
<path d="M616.667 498.511C616.667 499.181 616.69 499.841 616.737 500.493C616.692 500.596 616.667 500.709 616.667 500.827C616.667 532.821 605.245 560.402 582.401 583.57C559.557 605.634 532.362 616.667 500.816 616.667C469.269 616.667 441.531 605.634 417.599 583.57C394.755 560.402 383.333 532.821 383.333 500.827C383.333 500.758 383.325 500.691 383.309 500.627C383.042 494.073 380.603 488.569 375.991 484.113C371.096 479.149 365.268 476.667 358.508 476.667C351.748 476.667 345.804 479.149 340.676 484.113C335.972 488.657 333.528 494.292 333.345 501.019C333.337 501.072 333.333 501.127 333.333 501.182L333.334 501.655L333.333 501.844C333.333 501.986 333.334 502.127 333.336 502.268C333.593 547.512 349.909 586.551 382.285 619.385C416.473 650.906 456.099 666.667 501.165 666.667C546.231 666.667 585.082 650.906 617.716 619.385C650.35 586.288 666.667 546.887 666.667 501.182C666.667 501.023 666.635 500.871 666.578 500.733C666.637 500.004 666.667 499.263 666.667 498.511C666.667 491.418 664.219 485.508 659.324 480.78C654.429 475.816 648.601 473.333 641.841 473.333C635.082 473.333 629.138 475.816 624.009 480.78C619.114 485.508 616.667 491.418 616.667 498.511Z" fill="white"/>
<path d="M348.019 419.149C358.275 428.605 370.163 433.333 383.683 433.333C397.203 433.333 408.858 428.605 418.648 419.149C428.438 409.22 433.333 397.4 433.333 383.688C433.333 369.504 428.438 357.683 418.648 348.227C408.858 338.298 397.203 333.333 383.683 333.333C370.163 333.333 358.275 338.298 348.019 348.227C338.228 357.683 333.333 369.504 333.333 383.688C333.333 397.4 338.228 409.22 348.019 419.149Z" fill="white"/>
<path fill-rule="evenodd" clip-rule="evenodd" d="M0 500C0 223.858 223.858 0 500 0C776.142 0 1000 223.858 1000 500C1000 776.142 776.142 1000 500 1000C223.858 1000 0 776.142 0 500ZM500 950C251.472 950 50 748.528 50 500C50 251.472 251.472 50 500 50C748.528 50 950 251.472 950 500C950 748.528 748.528 950 500 950Z" fill="white"/>
</g>
<defs>
<clipPath id="clip0_347_781">
<rect width="1000" height="1000" fill="white"/>
</clipPath>
</defs>
</svg>
